<?xml version="1.0" encoding="UTF-8"?>
<svg width="700pt" height="700pt" version="1.1" viewBox="0 0 700 700" xmlns="http://www.w3.org/2000/svg">
 <path d="m479.63 68.746c-9.4688 0-18.93 1.0586-28.195 3.3242l-0.011719 28.32h33.969v-31.516h-5.7617zm-259.3 0h-6.4102v31.281h33.992l0.011719-28.32c-9.0703-2.1172-18.332-3.1758-27.594-3.1758zm270.66 0.42188v31.094h34.004v-22.879c-10.961-4.4023-22.422-7.1328-34.004-8.2109zm-282.66 0c-11.59 1.0586-23.043 3.9375-33.992 8.3828v22.457h33.992zm45.203 4.0195-0.011719 26.859h33.973v-11.324c-10.625-7.0234-22.094-12.188-33.957-15.531zm192.3 0c-11.887 3.4297-23.359 8.6992-33.984 15.832v10.965h33.984zm84.73 6.3711-0.011719 20.488h31c-9.4688-8.5703-19.934-15.41-30.988-20.488zm-361.79 0.21094c-10.754 5.0156-20.938 11.684-30.176 20.023h30.176zm124.32 12.68v7.3867h9.0352c-2.918-2.1602-5.9375-4.6133-9.0352-6.9219zm113.14 0.42188c-2.8867 2.1797-5.7109 4.4883-8.4453 6.9648h8.4453zm-271.41 12.445v34.012h33.973v-34.012zm39.551 0v33.992h33.973v-33.992zm39.57 0v34.012h34.004v-34.012zm39.582 0v33.992h33.961v-33.992zm39.594 0v33.992h34.004v-14.836l-19.137-19.156zm98.863 0-19.707 19.727v14.266h33.969l0.011719-33.992zm19.875 0v33.969h33.992v-33.992zm39.57 0 0.011718 33.969h33.957v-33.992zm39.582 0-0.011719 33.992h34.004v-33.992zm39.594 0v34.012h33.984l0.011719-33.992zm39.551 3.0039 0.011719 31.027h20.582c-5.1172-11.07-11.98-21.547-20.594-31.027zm-440.94 0.63672c-8.2734 9.2266-14.91 19.387-19.895 30.117h19.895zm203.49 21.016v9.2266h9.2109zm33.961 0.63672-8.6094 8.6367h8.6094zm-259.77 14.137c-4.4297 10.941-7.2148 22.371-8.3359 33.949h30.68v-33.969zm27.934 0v33.969h33.973v-33.969zm39.57 0v33.969h33.992l-0.019531-33.969zm39.57 0v33.969h33.992v-33.969zm39.559 0 0.019531 33.969h33.938v-33.969zm39.57 0v33.969h33.969l0.011719-33.969zm39.602 0v33.992h33.977v-33.992l-14.223 0.003906-2.4727 2.4766-2.4688-2.4766zm39.582 0-0.011719 33.969h34.004v-33.969zm39.57 0v33.969h34.004v-33.969zm39.57 0 0.011719 33.949h33.98v-33.969zm39.582 0v33.969h33.969l0.011719-33.969zm39.594 0v33.969h33.984l0.011719-33.949zm39.598 0v33.992h31.234c-1.1016-11.578-3.8711-23.027-8.2812-33.969zm-472.05 39.305c-0.57813 11.387 0.44922 22.859 3.0625 34.012h28.066l0.019531-33.992zm36.715 0-0.011719 33.992h33.98l-0.011719-33.992zm39.539 0v34.012h33.98v-33.992zm39.605 0-0.019531 33.969h34.004l-0.011719-33.969zm39.547 0 0.019531 33.969h33.938l0.011719-33.969zm39.559 0 0.011719 33.992h33.969v-33.992zm79.188 0v33.992l34.016 0.003906-0.011718-33.992zm-39.598 0v33.969h33.977l-0.011719-33.992zm79.176 0-0.011718 33.992h33.992v-34.012zm39.582 0v34.012h33.961l0.011719-33.992zm39.562 0 0.011718 33.992h33.992v-34.012zm39.578 0 0.011719 33.992h33.996v-33.992zm39.605 0v33.992h28.5c2.6367-11.152 3.6836-22.625 3.1289-34.012zm-467.55 39.324c3.375 11.875 8.5625 23.344 15.617 33.969h10.992l0.019531-33.992zm32.211 0 0.019531 33.992h33.973l-0.019531-33.992zm39.559 0v33.969h33.973l0.011718-33.992zm39.582 0-0.011718 33.992h33.992v-33.969zm39.57 0 0.011719 33.992 33.969 0.003906v-33.992zm39.559 0 0.011719 33.992h33.969l0.011718-33.992zm39.559 0v33.992h33.977v-33.992zm39.598 0v33.992l34.023 0.003906-0.011718-33.992zm39.594 0v34.012h33.992l0.019532-33.922zm39.594 0v33.992h33.945v-33.992zm39.559 0v33.969h33.992v-34.012zm39.594 0v33.969h33.984v-34.012zm39.582 0v33.969h11.273c7.0898-10.625 12.324-22.098 15.727-33.969zm-447.96 39.348c2.2031 2.9414 4.543 5.8203 7.043 8.5938v-8.5938zm12.633 0v14.457l19.512 19.516h14.48v-33.969zm39.559 0 0.019532 33.949 33.996 0.003906v-33.969zm39.582 0-0.019532 33.992h33.992l0.011719-33.969zm39.562 0v33.969h33.98v-33.992zm39.57 0v33.969h34.004l-0.011718-33.969zm39.57 0v33.969h33.961v-33.969zm39.574 0v33.992h33.969l0.011718-33.969zm39.582 0v33.969h33.969v-33.949zm39.594 0v33.969h33.969v-33.969zm39.582 0v33.969h34.004l-0.011718-33.969zm39.582 0-0.011719 33.969h14.711l19.285-19.281v-14.688zm39.574 0v8.8242c2.5898-2.8555 5-5.8008 7.2734-8.8242zm-395.73 39.324v14.457l19.535 19.535h14.457v-33.969zm-14.449 0 8.8359 8.8242v-8.8242zm54.031 0v33.969h33.992v-34.012zm39.559 0v33.969h33.961v-34.012zm39.559 0v33.969h33.98v-34.012zm39.594 0v33.992h33.977l-0.011718-33.969zm39.562 0v33.969h33.98v-34.012zm39.57 0v33.992h33.984v-33.992zm79.164 0v34.012h14.734l19.262-19.281v-14.711zm-39.582 0v33.969h33.957v-34.012zm79.164 0v9.1016l9.1133-9.1016zm-331.01 39.43 8.8281 8.8242v-8.8242zm14.406 0v14.414l19.566 19.559h14.449l-0.011718-33.969zm39.605 0v33.93h33.961v-33.969zm39.535 0 0.011719 33.969h33.98l0.011719-33.969zm39.582 0v33.969h33.977v-33.949zm39.574 0 0.011719 33.969h33.98v-33.949zm39.57 0v33.93h33.984v-33.969zm39.574 0v33.949h14.711l13.41-13.398 5.8516-5.8398v-14.73zm39.57 0v9.1211l9.1133-9.1211zm-251.86 39.391 8.8711 8.8672-0.011719-8.8672zm14.469 0v14.434l9.8555 9.8633 9.6797 9.6953h14.414l0.011719-33.969zm39.559 0v33.969h33.969l0.011719-33.969zm39.582 0v33.992h33.984v-33.969zm39.562 0v34.012h33.98l-0.011719-33.992zm39.582 0v34.012h14.656l9.7773-9.7773 9.5586-9.5469v-14.668zm39.57 0v9.0586l9.0664-9.0586zm-172.7 39.473 8.8242 8.8242v-8.8242zm14.449 0v14.457l19.523 19.535h14.469v-33.992zm39.57 0v33.969h33.965l0.011719-33.992zm39.562 0v33.992h14.652l19.328-19.344v-14.645zm39.547 0v9.0586l9.0586-9.0586zm-93.559 39.516 8.8594 8.8477-0.011719-8.8477zm14.469 0v14.457l17.098 17.102 16.875-16.891v-14.668zm39.562 0v9.0781l9.0664-9.0781z"/>
</svg>
